<?xml version="1.0" standalone="no"?>
<!DOCTYPE svg PUBLIC "-//W3C//DTD SVG 20010904//EN"
 "http://www.w3.org/TR/2001/REC-SVG-20010904/DTD/svg10.dtd">
<svg version="1.0" xmlns="http://www.w3.org/2000/svg"
 width="400.000000pt" height="400.000000pt" viewBox="0 0 400.000000 400.000000"
 preserveAspectRatio="xMidYMid meet">
<metadata>
Created by potrace 1.11, written by Peter Selinger 2001-2013
</metadata>
<g transform="translate(0.000000,400.000000) scale(0.100000,-0.100000)"
fill="#000000" stroke="none">
<path d="M2192 3838 c-23 -4 -47 -10 -52 -13 -6 -3 -64 -1 -129 5 -113 11
-122 11 -166 -9 -33 -14 -68 -21 -113 -21 -69 0 -173 -33 -221 -71 -13 -11
-35 -19 -50 -19 -33 0 -97 -30 -136 -62 -42 -35 -264 -128 -307 -128 -11 0
-36 -17 -55 -37 -28 -32 -41 -38 -75 -39 -34 0 -46 -6 -70 -35 -45 -52 -98
-137 -111 -178 -8 -22 -22 -41 -39 -49 -46 -22 -71 -62 -65 -105 3 -21 14 -45
24 -52 17 -13 17 -15 -5 -60 -24 -50 -22 -76 7 -109 10 -12 17 -41 19 -85 4
-103 8 -135 16 -154 5 -11 4 -29 -3 -43 -19 -42 -13 -70 20 -98 47 -40 52 -74
21 -135 l-26 -51 20 -34 c10 -19 43 -60 71 -90 63 -67 84 -106 184 -353 52
-131 99 -227 145 -300 37 -59 69 -110 71 -113 3 -3 11 4 19 14 12 17 16 17 30
5 16 -13 17 -12 11 13 -6 23 -3 27 25 37 17 6 40 11 51 11 16 0 18 3 9 12 -9
9 -21 9 -50 0 -22 -7 -44 -12 -49 -12 -15 0 -61 128 -73 203 -6 37 -22 93 -36
125 -33 72 -83 223 -94 282 -6 35 -4 49 7 62 14 15 14 24 -3 78 -10 33 -21 60
-26 60 -4 0 -8 6 -8 14 0 8 -14 17 -31 21 l-31 7 33 34 c32 33 33 35 18 62 -8
15 -13 37 -11 48 8 49 141 169 180 162 45 -7 56 42 21 98 -15 24 -19 46 -17
81 3 51 5 52 65 39 29 -7 32 -5 42 27 12 36 76 117 92 117 5 0 9 -7 9 -15 0
-24 68 -92 97 -98 20 -4 31 1 46 20 14 18 26 23 42 19 23 -6 76 29 113 74 20
25 137 56 155 42 25 -20 56 -20 73 -1 18 20 34 22 172 19 49 0 72 4 99 21 20
12 51 23 70 24 21 2 45 12 62 29 15 14 38 26 52 25 13 0 41 4 62 9 21 6 39 6
43 1 3 -5 15 -2 27 6 31 20 155 57 167 50 6 -3 10 -12 10 -19 0 -27 47 -57 99
-63 53 -6 72 -22 53 -46 -15 -18 29 -64 70 -72 l33 -6 -2 -79 -3 -79 50 -42
51 -43 -31 -12 c-32 -14 -39 -31 -15 -40 8 -4 15 -13 15 -22 0 -8 15 -30 34
-48 32 -31 35 -41 46 -126 24 -185 29 -245 29 -340 1 -58 5 -98 11 -98 13 0
12 165 -1 280 -22 193 -23 238 -5 266 10 14 15 32 12 39 -6 16 19 39 32 31 6
-3 12 -20 16 -38 6 -37 31 -301 42 -448 l7 -95 -22 19 c-11 11 -24 16 -29 12
-7 -8 66 -76 82 -76 4 0 5 8 1 18 -7 20 -18 111 -40 367 -23 258 -33 293 -76
267 -27 -17 -32 -11 -19 22 10 27 3 48 -28 87 -11 14 -9 21 13 47 27 32 32 61
14 79 -8 8 -4 16 15 28 29 19 34 52 10 62 -13 5 -11 10 11 27 32 26 29 49 -12
91 -20 19 -24 28 -15 34 7 4 14 19 15 32 1 13 8 34 15 47 11 19 10 27 -4 51
-9 16 -31 35 -48 42 -23 11 -32 22 -34 44 -2 17 -7 35 -12 40 -4 6 -11 24 -14
40 -13 58 -63 95 -129 95 -51 0 -60 6 -46 31 7 13 6 19 -1 19 -6 0 -15 11 -20
24 -5 14 -21 32 -35 42 -14 9 -25 22 -25 29 0 7 -20 15 -50 18 -28 3 -60 13
-72 22 -13 8 -31 15 -41 15 -14 0 -17 5 -13 16 6 15 0 16 -46 10 -132 -17
-180 -19 -188 -6 -11 17 -94 28 -148 18z m-1275 -1694 c-3 -3 -12 -4 -19 -1
-8 3 -5 6 6 6 11 1 17 -2 13 -5z m67 -46 c2 -7 16 -53 31 -103 14 -49 41 -126
60 -170 19 -45 39 -112 46 -150 6 -39 24 -102 39 -140 25 -66 28 -95 11 -95
-13 0 -130 203 -160 277 -16 37 -56 137 -91 222 -51 124 -60 155 -49 162 22
14 109 11 113 -3z"/>
<path d="M2612 2670 c-24 -4 -47 -11 -50 -17 -4 -5 -25 -13 -47 -17 -22 -4
-44 -11 -50 -16 -5 -4 -31 -11 -58 -14 -38 -6 -55 -16 -87 -49 -22 -22 -40
-44 -40 -47 0 -4 11 -17 24 -29 15 -14 22 -29 19 -39 -5 -11 -2 -14 8 -10 8 3
46 11 84 17 39 7 110 21 159 32 48 12 100 18 114 14 17 -4 42 3 79 21 43 21
63 25 94 20 34 -6 39 -4 39 14 0 11 -6 20 -12 20 -20 1 -50 48 -43 69 5 16 -1
20 -32 24 -73 11 -158 14 -201 7z"/>
<path d="M1518 2466 c-25 -12 -61 -34 -80 -48 -18 -14 -48 -33 -65 -42 -49
-25 -103 -76 -103 -97 0 -10 -8 -23 -17 -28 -17 -10 -15 -12 17 -15 8 -1 33
-8 56 -15 39 -13 44 -12 101 18 33 18 68 40 77 50 9 10 36 26 59 35 23 10 68
31 100 47 45 23 66 28 93 23 22 -4 34 -2 34 5 0 6 -4 11 -10 11 -5 0 -10 5
-10 10 0 6 -15 24 -32 40 -30 27 -39 29 -103 29 -53 0 -82 -5 -117 -23z"/>
<path d="M2252 2248 c3 -7 49 -33 103 -57 120 -54 231 -72 323 -53 62 13 182
67 182 83 0 13 -1 13 -70 -22 -139 -69 -266 -65 -434 14 -109 52 -109 52 -104
35z"/>
<path d="M2023 1847 l-2 -392 -32 -90 c-17 -49 -48 -114 -68 -143 -95 -139
-262 -452 -289 -542 -17 -57 -23 -152 -9 -147 7 2 14 33 17 73 5 60 16 89 79
219 80 164 115 225 202 357 31 48 67 116 79 152 38 116 44 88 37 -194 -3 -143
-3 -260 1 -260 4 0 17 15 29 34 12 18 57 78 101 132 43 55 96 131 117 169 20
39 48 89 62 113 20 33 24 53 21 92 -1 28 -2 50 -1 50 12 0 280 -281 310 -325
46 -68 123 -217 123 -239 0 -16 27 -29 34 -17 8 12 -109 226 -158 291 -22 30
-102 116 -177 191 -75 74 -144 150 -153 167 -18 35 -26 38 -44 20 -17 -17 -15
-25 6 -30 20 -5 42 -72 42 -123 0 -33 -113 -244 -160 -299 -20 -22 -57 -69
-84 -103 -26 -35 -48 -63 -49 -63 -3 0 -3 83 -5 840 -1 349 -6 460 -20 460 -4
0 -8 -177 -9 -393z"/>
<path d="M1799 2071 c-12 -17 -54 -45 -103 -67 -72 -35 -89 -39 -151 -38 -62
1 -123 16 -199 49 -14 6 -18 5 -14 -6 8 -25 136 -62 218 -63 66 -1 84 4 151
35 66 32 139 90 139 112 0 16 -21 5 -41 -22z"/>
<path d="M3040 1978 c0 -43 -46 -154 -101 -246 -70 -117 -77 -160 -7 -50 88
140 142 278 119 301 -8 8 -11 7 -11 -5z"/>
<path d="M2893 1490 c11 -73 28 -178 42 -248 8 -40 15 -95 15 -123 0 -31 4
-48 10 -44 14 9 12 77 -5 170 -8 44 -22 121 -30 170 -9 50 -21 95 -27 100 -7
7 -9 -1 -5 -25z"/>
<path d="M1330 1345 c0 -10 112 -116 117 -111 8 8 -34 61 -71 90 -34 26 -46
31 -46 21z"/>
<path d="M1464 1043 c4 -27 22 -113 40 -193 19 -80 44 -199 56 -265 12 -66 30
-163 40 -215 l18 -96 68 -66 c83 -80 123 -112 131 -105 3 3 -37 46 -89 96
l-94 90 -19 103 c-18 107 -77 402 -117 591 -23 107 -46 149 -34 60z"/>
<path d="M2954 1000 c-23 -47 -75 -131 -116 -187 -41 -55 -96 -136 -123 -180
-27 -43 -64 -97 -83 -121 -36 -45 -37 -69 -2 -37 11 10 54 72 95 138 42 65
102 153 134 195 67 90 144 232 139 258 -2 12 -18 -12 -44 -66z"/>
<path d="M2272 1055 c4 -20 111 -165 122 -165 14 0 1 22 -59 103 -58 78 -69
89 -63 62z"/>
<path d="M1960 1013 c0 -30 -70 -231 -88 -253 -10 -12 -45 -27 -84 -36 -71
-18 -89 -34 -39 -34 27 0 102 26 144 50 62 36 155 61 218 58 47 -1 73 2 90 13
17 11 60 18 147 22 l123 5 -39 -26 c-22 -15 -67 -45 -100 -68 l-61 -41 -163
-6 c-172 -7 -218 -13 -218 -29 0 -6 11 -8 28 -4 15 4 102 9 195 13 l167 6 68
48 c37 26 89 60 117 75 27 15 54 33 60 40 5 7 19 14 29 16 11 1 19 8 17 13 -3
11 -1 12 -104 -9 -43 -9 -116 -16 -161 -16 -59 0 -88 -4 -105 -16 -17 -12 -44
-16 -100 -16 -60 1 -87 -3 -131 -22 -30 -14 -56 -21 -58 -17 -1 4 14 53 33
109 37 109 41 127 25 137 -5 3 -10 -2 -10 -12z"/>
<path d="M2575 425 c-5 -2 -137 -45 -293 -95 -155 -51 -280 -95 -277 -100 5
-8 135 30 390 115 88 29 175 56 193 60 17 4 32 11 32 16 0 9 -25 11 -45 4z"/>
</g>
</svg>
